# xmcd
# 
# Track frame offsets:
#     150
#     11475
#     20762
#     31440
#     50295
#     62525
#     74440
#     83727
#     96295
#     110960
#     121870
#     142357
#     154787
#     166610
#     182667
#     196447
#     211657
#     227907
#     240917
#     260455
#     274625
#     285007
#     305420
#     321907
# 
# Disc length: 4461
# 
# Revision: 4
# Processed by: cddbd v1.5.2PL0 Copyright (c) Steve Scherf et al.
# Submitted via: BonkEnc v1.0.6
# 
DISCID=4a116b18
DTITLE=Elvis Presley - Great Country Songs
DYEAR=1996
DGENRE=Pop
TTITLE0=I Forgot To Remember To Forget
TTITLE1=Blue Moon Of Kentucky
TTITLE2=When My blue Moon Turns To Gold Again
TTITLE3=Old Shep
TTITLE4=Your Cheatin' Heart (ALternate take 9)
TTITLE5=(Now and Then There's) A Fool Such As I
TTITLE6=Just Call Me Lonesome (Alternate take 6)
TTITLE7=There Goes My Everything (Alternake 1)
TTITLE8=Kentucky Rain
TTITLE9=From a Jack To a King
TTITLE10=I'll Hold You In My Heart
TTITLE11=I Really Don't Want To Know
TTITLE12=It Keeps Right On A-Hurtin'
TTITLE13=Green, Green Grass Of Home (Alternate take 1)
TTITLE14=Fairytale (Alternate take 2)
TTITLE15=Gentle On My Mind
TTITLE16=Make The World Go Away
TTITLE17=You Asked Me Too
TTITLE18=Funny How Time Slips Away
TTITLE19=Help Me Make It Through the Night (Alternate take 3)
TTITLE20=Susan When She Tried
TTITLE21=He'll Have To Go
TTITLE22=Always On My Mind
TTITLE23=Guitar Man (Remake)
EXTD=ECA/BMG Music. CD 07863 66880 2. Made in the EC. 24 great tracks. Featuring 5 previously unreleased performances.
EXTT0=
EXTT1=
EXTT2=
EXTT3=
EXTT4=
EXTT5=
EXTT6=
EXTT7=
EXTT8=
EXTT9=
EXTT10=
EXTT11=
EXTT12=
EXTT13=
EXTT14=
EXTT15=
EXTT16=
EXTT17=
EXTT18=
EXTT19=
EXTT20=
EXTT21=
EXTT22=
EXTT23=
PLAYORDER=
